<?xml version="1.0" encoding="utf-8"?>
<!-- Generator: Adobe Illustrator 16.0.0, SVG Export Plug-In . SVG Version: 6.00 Build 0)  -->
<!DOCTYPE svg PUBLIC "-//W3C//DTD SVG 1.1//EN" "http://www.w3.org/Graphics/SVG/1.1/DTD/svg11.dtd">
<svg version="1.1" id="Layer_1" xmlns="http://www.w3.org/2000/svg" xmlns:xlink="http://www.w3.org/1999/xlink" x="0px" y="0px"
	 width="24px" height="24px" viewBox="0 0 24 24" enable-background="new 0 0 24 24" xml:space="preserve">
<g>
	<polygon fill="#FFFFFF" points="19.998,7 17.998,7 17.998,2 5.998,2 5.998,7 3.998,7 3.998,0 19.998,0 	"/>
	<path fill="#FFFFFF" d="M24,19h-5.002v-2H22V8.652c0-0.36-0.294-0.654-0.654-0.654H2.654C2.294,7.998,2,8.292,2,8.652V17h2.998v2H0
		V8.652c0-1.463,1.189-2.654,2.654-2.654h18.691C22.81,5.998,24,7.189,24,8.652V19z"/>
	<path fill="#FFFFFF" d="M19.998,24h-16V10h16V24z M5.998,22h12V12h-12V22z"/>
	<rect x="8" y="18" fill="#FFFFFF" width="7.998" height="2"/>
	<rect x="8" y="14" fill="#FFFFFF" width="7.998" height="2"/>
</g>
</svg>
