<?xml version="1.0" encoding="utf-8"?>
<!-- Generator: Adobe Illustrator 16.0.0, SVG Export Plug-In . SVG Version: 6.00 Build 0)  -->
<!DOCTYPE svg PUBLIC "-//W3C//DTD SVG 1.1//EN" "http://www.w3.org/Graphics/SVG/1.1/DTD/svg11.dtd">
<svg version="1.1" id="Layer_1" xmlns="http://www.w3.org/2000/svg" xmlns:xlink="http://www.w3.org/1999/xlink" x="0px" y="0px"
	 width="56px" height="72px" viewBox="0 0 56 72" enable-background="new 0 0 56 72" xml:space="preserve">
<path fill="#94277E" d="M56,14.636c0-1.705-0.665-3.305-1.875-4.507l-6.754-6.746c-1.205-1.205-2.812-1.869-4.52-1.869
	c-0.004,0-0.008,0-0.012,0c-0.318,0-0.641,0-0.942,0V0h-3.221v6.25h3.221V4.727c0.306,0,0.63,0,0.95,0h0.004
	c0.85,0,1.644,0.33,2.247,0.928l6.753,6.749c0.599,0.596,0.928,1.389,0.928,2.232s-0.329,1.641-0.928,2.24l-5.574,5.562H22.611
	l-5.572-5.562c-0.599-0.6-0.931-1.396-0.931-2.24s0.329-1.637,0.931-2.234l6.754-6.747c0.599-0.598,1.396-0.928,2.242-0.928
	c0.004,0,0.004,0,0.008,0c0.305,0,0.618,0,0.912,0V6.25h3.22V0h-3.22v1.514c-0.294,0-0.603,0-0.908,0c-0.004,0-0.008,0-0.008,0
	c-1.709,0-3.314,0.664-4.523,1.869l-6.75,6.744c-1.209,1.204-1.875,2.804-1.875,4.509c0,1.701,0.666,3.305,1.871,4.512l18.073,18.04
	v28.434c0,0.848-0.329,1.645-0.928,2.242c-0.598,0.594-1.389,0.922-2.233,0.922c-0.004,0-0.009,0-0.009,0l-5.082,0.002
	c-1.773,0-3.167-1.389-3.167-3.166l-0.039-27.814c0-1.707-0.657-3.307-1.851-4.504c-1.201-1.205-2.813-1.869-4.535-1.869
	L9.91,31.436c0,0-0.003,0-0.008,0c-1.702,0-3.302,0.66-4.507,1.863s-1.871,2.805-1.875,4.512v17.431C1.479,55.935,0,57.843,0,60.116
	c0,2.856,2.32,5.171,5.18,5.171c2.86,0,5.176-2.314,5.176-5.171c0-2.309-1.526-4.24-3.615-4.904V37.811
	c0-0.848,0.333-1.643,0.931-2.24c0.595-0.596,1.385-0.924,2.234-0.924c0,0,0,0,0.003,0h5.083c1.772,0,3.165,1.391,3.165,3.164
	l0.04,27.814c0,1.707,0.657,3.309,1.85,4.506C21.25,71.336,22.863,72,24.588,72h5.078c0.005,0,0.005,0,0.009,0
	c1.702,0,3.302-0.664,4.507-1.865c1.205-1.205,1.87-2.807,1.874-4.512V37.188L54.13,19.146C55.335,17.94,56,16.337,56,14.636z
	 M7.434,60.116c0,1.24-1.013,2.25-2.253,2.25c-1.245,0-2.254-1.01-2.254-2.25s1.009-2.25,2.254-2.25
	C6.42,57.866,7.434,58.876,7.434,60.116z M43.06,25.651l-8.615,8.601l-8.612-8.601H43.06z"/>
</svg>
