<?xml version="1.0" encoding="utf-8"?>
<!-- Generator: Adobe Illustrator 16.0.0, SVG Export Plug-In . SVG Version: 6.00 Build 0)  -->
<!DOCTYPE svg PUBLIC "-//W3C//DTD SVG 1.1//EN" "http://www.w3.org/Graphics/SVG/1.1/DTD/svg11.dtd">
<svg version="1.1" id="Layer_1" xmlns="http://www.w3.org/2000/svg" xmlns:xlink="http://www.w3.org/1999/xlink" x="0px" y="0px"
	 width="52px" height="72px" viewBox="0 0 52 72" enable-background="new 0 0 52 72" xml:space="preserve">
<path fill="#E77825" d="M49.956,15.836c-1.311-3.086-3.185-5.859-5.573-8.242c-2.386-2.379-5.166-4.25-8.264-5.555
	C32.913,0.688,29.508,0,25.999,0s-6.913,0.688-10.12,2.039c-3.098,1.305-5.875,3.176-8.265,5.555
	c-2.385,2.383-4.261,5.156-5.569,8.242C0.686,19.035,0,22.43,0,25.93c0,4.184,1.018,8.34,2.953,12.02
	c1.864,3.547,4.57,6.664,7.834,9.016c0.396,0.316,0.803,0.621,1.202,0.914c1.864,1.395,3,2.336,3,3.648l0.012,13.781h4.261
	C19.282,69.004,22.293,72,25.999,72c3.705,0,6.72-2.996,6.741-6.691H37V51.527c0-1.312,1.136-2.254,3.004-3.648
	c0.368-0.273,0.752-0.562,1.122-0.855c3.284-2.348,6.014-5.469,7.894-9.031C50.968,34.301,52,30.129,52,25.93
	C52,22.43,51.311,19.035,49.956,15.836 M25.999,68.805c-1.938,0-3.517-1.562-3.537-3.496h7.077
	C29.516,67.242,27.941,68.805,25.999,68.805 M18.197,62.117l-0.004-8.125H33.8v8.125H18.197z M46.186,36.508
	c-1.654,3.133-4.059,5.879-6.957,7.941l-0.07,0.059c-0.341,0.27-0.693,0.535-1.071,0.816c-1.749,1.301-3.864,2.91-4.216,5.473
	H18.119c-0.349-2.562-2.467-4.172-4.214-5.473c-0.399-0.301-0.779-0.582-1.136-0.871l-0.074-0.055
	c-2.875-2.062-5.265-4.809-6.902-7.93C4.097,33.242,3.2,29.598,3.2,25.93c0-3.07,0.603-6.047,1.79-8.848
	c1.151-2.707,2.792-5.141,4.889-7.23c2.095-2.086,4.531-3.727,7.246-4.875c2.812-1.184,5.796-1.785,8.875-1.785
	c3.079,0,6.065,0.602,8.875,1.785c2.714,1.148,5.152,2.789,7.246,4.875c2.095,2.09,3.74,4.523,4.888,7.23
	c1.188,2.801,1.789,5.777,1.789,8.848C48.796,29.613,47.894,33.273,46.186,36.508 M32.65,15.656c1.827,1.629,2.834,3.91,2.834,6.426
	c0,4.199-2.655,6.027-4.79,7.5c-1.952,1.344-3.059,2.199-3.059,4.09v2.895h-3.2v-2.895c0-3.66,2.459-5.355,4.441-6.719
	c2.111-1.453,3.403-2.469,3.403-4.871c0-1.617-0.608-3.016-1.764-4.047c-1.146-1.02-2.736-1.586-4.483-1.586
	c-3.442,0-6.247,2.797-6.247,6.23h-3.2c0-5.195,4.237-9.422,9.446-9.422C28.567,13.258,30.916,14.109,32.65,15.656 M24.436,39.418
	h3.2v3.477h-3.2V39.418z"/>
</svg>
